<svg width="215" height="127" viewBox="0 0 215 127" fill="none" xmlns="http://www.w3.org/2000/svg">
<path d="M66.8861 54.2051C66.75 54.6989 66.4778 55.1927 66.0694 55.6865C65.7065 56.1355 65.2754 56.517 64.7764 56.8313C64.3227 57.1007 63.8463 57.2802 63.3472 57.37C62.8481 57.4598 62.4398 57.37 62.1222 57.1006C61.1695 56.3824 60.6704 55.6192 60.625 54.8111C60.5796 53.9581 60.7838 53.1725 61.2375 52.4542C61.6912 51.6911 62.2583 51.0626 62.9389 50.5687C63.6194 50.03 64.2092 49.7158 64.7083 49.626C65.2074 49.5362 65.6157 49.6484 65.9333 49.9627C66.2963 50.232 66.5685 50.6136 66.75 51.1074C66.9315 51.5564 67.0222 52.0726 67.0222 52.6563C67.0676 53.2399 67.0222 53.7561 66.8861 54.2051ZM57.4945 68.5483C57.7213 68.279 58.1523 68.0545 58.7875 67.875C59.4227 67.6954 60.0806 67.5607 60.7611 67.4709C61.4417 67.3362 62.0542 67.2689 62.5986 67.2689C63.1884 67.224 63.5287 67.224 63.6194 67.2689C63.6648 67.3138 63.5514 67.7852 63.2792 68.683C63.0069 69.5809 62.6667 70.6359 62.2583 71.848C61.85 73.0601 61.419 74.3171 60.9653 75.619C60.5116 76.876 60.1713 77.9085 59.9445 78.7166C59.7176 79.5247 59.4454 80.445 59.1278 81.4775C58.8102 82.4652 58.5153 83.4528 58.2431 84.4404C58.0162 85.3832 57.8574 86.281 57.7667 87.134C57.676 87.987 57.744 88.6379 57.9709 89.0869C58.1977 89.6256 58.4472 90.0072 58.7195 90.2316C58.9917 90.4112 59.2866 90.501 59.6042 90.501C60.5116 90.501 61.6458 90.0072 63.0069 89.0195C64.4134 88.0319 65.8199 86.8647 67.2264 85.5179C68.6782 84.1262 70.0166 82.7345 71.2416 81.3428C72.4666 79.9063 73.374 78.7615 73.9638 77.9085C74.3268 77.4596 74.6897 77.1678 75.0527 77.0331C75.461 76.8984 75.7786 76.9209 76.0055 77.1004C76.2777 77.28 76.4138 77.5718 76.4138 77.9759C76.4592 78.3799 76.3231 78.8513 76.0055 79.39C75.2795 80.647 74.2134 82.1509 72.8069 83.9017C71.4004 85.6077 69.9032 87.2687 68.3152 88.8848C66.7273 90.4561 65.162 91.8029 63.6194 92.9252C62.1222 94.0475 60.8972 94.6311 59.9445 94.676C59.1732 94.7209 58.4019 94.5862 57.6306 94.272C56.9047 94.0026 56.2241 93.621 55.5889 93.1272C54.9991 92.5885 54.5 91.9824 54.0917 91.3091C53.6834 90.5908 53.4565 89.85 53.4112 89.0869C53.2751 87.9645 53.2751 86.4382 53.4112 84.5078C53.5473 82.5325 53.7968 80.5348 54.1598 78.5146C54.5227 76.4495 54.9764 74.4967 55.5209 72.656C56.1107 70.8154 56.7686 69.4462 57.4945 68.5483Z" fill="#F6C1D2"/>
<path d="M70.3079 86.8647C69.8088 86.3708 69.4459 85.8995 69.219 85.4505C69.0375 84.9567 68.9014 84.4853 68.8107 84.0364C68.7199 83.5426 68.7199 83.0488 68.8107 82.5549C68.9922 81.9264 69.2644 81.3428 69.6273 80.8041C69.9449 80.3103 70.3759 79.8165 70.9204 79.3226C71.4648 78.7839 72.1907 78.2901 73.0982 77.8412C73.688 76.4046 74.2097 74.9007 74.6634 73.3294C75.1625 71.7133 75.5935 70.2543 75.9565 68.9524C76.3648 67.426 76.7278 65.8997 77.0454 64.3733C78.1796 60.5574 78.7694 57.4598 78.8148 55.0805C78.8602 52.6562 78.8148 51.0626 78.6787 50.2994C78.6333 49.9851 78.5879 49.6709 78.5426 49.3566C78.4518 49.0873 78.3611 48.7955 78.2703 48.4812C78.225 48.1221 78.1569 47.7854 78.0662 47.4711C78.5653 47.2018 78.9963 46.9773 79.3592 46.7977C79.7676 46.6182 80.1078 46.4835 80.3801 46.3937C80.6976 46.259 80.9925 46.1692 81.2648 46.1243C82.3083 45.8999 83.2837 45.7876 84.1911 45.7876C85.1439 45.7427 85.6657 45.8999 85.7564 46.259C85.8018 46.4835 85.8471 46.8875 85.8925 47.4711C85.9833 48.0547 86.0286 48.773 86.0286 49.626C86.0286 50.4789 85.9606 51.4441 85.8245 52.5216C85.6884 53.5541 85.4388 54.654 85.0759 55.8212C84.7583 56.8537 84.3273 58.2903 83.7828 60.1309C83.2837 61.7022 82.6259 63.8121 81.8092 66.4608C80.9925 69.0646 79.9264 72.4091 78.6106 76.4944C79.9717 76.0455 81.4689 75.619 83.1023 75.2149C84.7356 74.8109 86.3916 74.4742 88.0703 74.2049C89.7943 73.9355 91.4957 73.7335 93.1744 73.5988C94.8985 73.4641 96.4864 73.4417 97.9383 73.5315C98.2105 73.5315 98.392 73.6661 98.4827 73.9355C98.6188 74.16 98.6188 74.4069 98.4827 74.6762C98.392 74.9456 98.1424 75.2149 97.7341 75.4843C97.3712 75.7088 96.8267 75.8434 96.1008 75.8883C95.1934 75.9781 94.1952 76.0904 93.1064 76.225C92.0175 76.3148 90.8832 76.472 89.7036 76.6964C88.5694 76.876 87.4351 77.1229 86.3008 77.4371C85.1666 77.7065 84.1004 78.0432 83.1023 78.4472C82.331 78.7166 81.5597 78.986 80.7884 79.2553C80.1532 79.4798 79.4727 79.7491 78.7467 80.0634C78.0662 80.3327 77.4991 80.5797 77.0454 80.8041L75.4801 85.7199C78.1116 87.5605 80.1305 89.446 81.537 91.3764C82.9888 93.3068 84.0323 95.0801 84.6675 96.6962C85.4388 98.5817 85.8698 100.422 85.9606 102.218C85.9606 104.193 85.6657 106.169 85.0759 108.144C84.486 110.164 83.6921 112.072 82.6939 113.868C81.7412 115.708 80.6069 117.414 79.2912 118.986C78.0208 120.557 76.6597 121.904 75.2079 123.026C73.8014 124.148 72.3496 125.001 70.8523 125.585C69.4005 126.168 68.0167 126.393 66.701 126.258C65.7482 126.168 64.9542 125.854 64.319 125.315C63.6839 124.822 63.2075 124.171 62.8899 123.363C62.5723 122.599 62.3908 121.724 62.3454 120.736C62.3001 119.794 62.3908 118.851 62.6177 117.908C62.7991 116.965 63.1848 115.215 63.7746 112.656C64.2737 110.501 65.045 107.358 66.0885 103.228C67.132 99.1429 68.5385 93.6884 70.3079 86.8647ZM74.3231 90.0296C73.688 92.2743 73.1208 94.3393 72.6218 96.2248C72.1681 98.1103 71.7824 99.7714 71.4648 101.208C71.0565 102.869 70.7389 104.373 70.5121 105.72C70.1037 107.426 69.6727 109.109 69.219 110.77C68.8107 112.431 68.4931 113.913 68.2662 115.215C67.994 116.561 67.8806 117.639 67.926 118.447C67.9713 119.255 68.2662 119.659 68.8107 119.659C70.1264 119.749 71.4875 119.232 72.894 118.11C74.3458 117.033 75.6616 115.641 76.8412 113.935C78.0208 112.274 78.9963 110.456 79.7676 108.481C80.5389 106.55 80.9245 104.754 80.9245 103.093C80.9245 101.253 80.6296 99.4347 80.0398 97.639C79.6314 96.6962 79.1551 95.7759 78.6106 94.878C78.1115 94.1149 77.4991 93.3068 76.7731 92.4538C76.0926 91.556 75.2759 90.7479 74.3231 90.0296Z" fill="#F6C1D2"/>
<path d="M114.631 76.8311C114.812 76.5617 115.039 76.4046 115.311 76.3597C115.629 76.2699 115.879 76.2924 116.06 76.4271C116.241 76.5617 116.332 76.7862 116.332 77.1004C116.378 77.4147 116.264 77.8412 115.992 78.3799C115.085 80.0858 113.882 81.9264 112.385 83.9017C110.933 85.877 109.391 87.7401 107.757 89.4909C106.124 91.1968 104.536 92.611 102.993 93.7333C101.451 94.8556 100.158 95.4168 99.1143 95.4168C97.6171 95.4168 96.3694 95.125 95.3712 94.5413C94.3731 93.9577 93.5791 93.2395 92.9893 92.3865C92.4449 91.5335 92.0592 90.6132 91.8324 89.6256C91.6055 88.593 91.5375 87.6503 91.6282 86.7973C91.6736 86.079 91.8324 84.7996 92.1046 82.959C92.3768 81.0735 92.7398 78.9186 93.1935 76.4944C93.6472 74.0253 94.1462 71.399 94.6907 68.6157C95.2805 65.7874 95.893 63.0714 96.5282 60.4676C95.7569 60.5574 94.9856 60.6472 94.2143 60.737C93.443 60.8268 92.7398 60.8717 92.1046 60.8717C90.6527 60.8717 89.2916 60.7145 88.0213 60.4003C86.7055 60.0411 85.7301 59.7044 85.0949 59.3902C84.7319 59.2106 84.5732 58.9637 84.6185 58.6495C84.6639 58.2903 84.8 57.9536 85.0269 57.6394C85.2537 57.2802 85.5486 56.9884 85.9116 56.764C86.2292 56.4946 86.5241 56.3599 86.7963 56.3599C87.6583 56.4497 88.5884 56.5395 89.5866 56.6293C90.5847 56.6742 91.6736 56.6742 92.8532 56.6293C93.7152 56.5844 94.5319 56.517 95.3032 56.4273C96.1198 56.3375 96.9138 56.2252 97.6851 56.0906C98.2749 53.9357 98.842 52.0726 99.3865 50.5014C99.9763 48.8852 100.498 47.7629 100.952 47.1344C101.088 46.91 101.383 46.7304 101.836 46.5957C102.336 46.4161 102.857 46.3039 103.402 46.259C103.946 46.1692 104.468 46.1692 104.967 46.259C105.466 46.3039 105.829 46.461 106.056 46.7304C106.283 47.0895 106.373 48.0098 106.328 49.4913C106.283 50.9728 106.033 52.8583 105.58 55.1478C107.485 55.1478 109.164 55.26 110.616 55.4845C112.113 55.6641 113.383 55.8885 114.427 56.1579C115.47 56.3824 116.31 56.6293 116.945 56.8986C117.58 57.1231 118.056 57.2802 118.374 57.37C118.691 57.4598 118.85 57.6843 118.85 58.0434C118.896 58.4025 118.828 58.7841 118.646 59.1882C118.51 59.5473 118.26 59.8616 117.897 60.1309C117.535 60.4003 117.126 60.4901 116.672 60.4003C116.219 60.3554 115.697 60.2656 115.107 60.1309C114.563 59.9962 113.882 59.884 113.066 59.7942C112.294 59.7044 111.364 59.6147 110.275 59.5249C109.186 59.4351 107.916 59.3902 106.464 59.3902C106.192 59.3902 105.874 59.4126 105.511 59.4575C105.194 59.4575 104.854 59.4575 104.491 59.4575C104.309 60.1758 104.128 60.8941 103.946 61.6124C103.81 62.2858 103.606 63.0041 103.334 63.7673C102.744 65.563 102.063 67.5158 101.292 69.6258C100.611 71.4664 99.7948 73.5764 98.842 75.9557C97.8893 78.335 96.8231 80.8715 95.6435 83.565C95.3712 85.4954 95.3939 86.9769 95.7115 88.0094C96.0745 88.9971 96.5055 89.7154 97.0046 90.1643C97.5944 90.6581 98.3203 90.9275 99.1823 90.9724C99.8629 91.0621 100.68 90.8377 101.632 90.299C102.63 89.7154 103.651 88.9522 104.695 88.0094C105.738 87.0667 106.782 86.0341 107.825 84.9118C108.914 83.7895 109.912 82.6896 110.82 81.6122C111.727 80.5348 112.521 79.5696 113.202 78.7166C113.882 77.8187 114.359 77.1902 114.631 76.8311Z" fill="#F6C1D2"/>
<path d="M140.111 76.831C139.249 75.9332 138.546 74.8333 138.001 73.5314C137.502 72.1846 137.116 70.8603 136.844 69.5584C136.527 68.0769 136.3 66.5057 136.164 64.8446C135.937 61.6123 136.3 58.6718 137.253 56.0232C138.205 53.3745 139.498 51.1074 141.132 49.2219C142.765 47.3364 144.58 45.8774 146.576 44.8448C148.618 43.8123 150.591 43.296 152.497 43.296C153.359 43.296 154.039 43.498 154.539 43.9021C155.083 44.3061 155.491 44.7999 155.764 45.3835C156.036 45.9671 156.195 46.5732 156.24 47.2017C156.331 47.8302 156.376 48.3465 156.376 48.7505C156.376 50.1871 156.331 51.6012 156.24 52.9929C156.195 54.3846 156.081 55.866 155.9 57.4373C155.764 59.0085 155.537 60.692 155.219 62.4877C154.901 64.2835 154.493 66.2812 153.994 68.481C153.722 69.6931 153.336 71.2419 152.837 73.1274C152.338 75.0129 151.748 77.1004 151.068 79.3899C153.109 79.4348 154.743 79.5246 155.968 79.6593C157.238 79.7491 158.055 79.8164 158.418 79.8613C158.735 79.9062 158.962 80.0633 159.098 80.3327C159.28 80.602 159.189 81.0285 158.826 81.6121C158.463 82.1508 157.941 82.4651 157.261 82.5549C156.626 82.6447 155.99 82.6896 155.355 82.6896C154.992 82.6896 154.312 82.6896 153.314 82.6896C152.361 82.6896 151.227 82.7345 149.911 82.8242C148.958 85.6076 147.869 88.4134 146.644 91.2417C145.465 94.025 144.149 96.539 142.697 98.7837C141.245 101.073 139.657 102.914 137.933 104.306C136.209 105.742 134.372 106.46 132.421 106.46C129.608 106.46 127.226 105.922 125.275 104.844C123.369 103.812 121.827 102.577 120.647 101.141C119.422 99.7489 118.537 98.3347 117.993 96.8982C117.448 95.5065 117.176 94.4291 117.176 93.6659C117.176 92.3191 117.539 90.9499 118.265 89.5582C118.991 88.1665 120.148 86.8646 121.736 85.6525C123.279 84.3955 125.298 83.2956 127.793 82.3529C130.288 81.4101 133.283 80.6918 136.776 80.198C138.228 80.0184 139.612 79.8838 140.928 79.794C142.243 79.6593 143.491 79.5471 144.671 79.4573C145.578 76.0903 146.485 72.656 147.393 69.1543C148.346 65.6527 149.162 62.4204 149.843 59.4575C150.115 58.2454 150.387 56.9435 150.659 55.5518C150.932 54.1152 151.136 52.7684 151.272 51.5114C151.453 50.2544 151.544 49.1994 151.544 48.3465C151.589 47.4935 151.499 47.0221 151.272 46.9323C151.136 46.8875 150.796 47.067 150.251 47.4711C149.707 47.8302 149.071 48.3689 148.346 49.0872C147.62 49.8055 146.894 50.6809 146.168 51.7134C145.487 52.7011 144.92 53.7785 144.466 54.9457C143.65 57.2353 143.015 59.4799 142.561 61.6797C142.198 63.5652 141.971 65.5629 141.88 67.6729C141.79 69.7828 142.13 71.6908 142.901 73.3967C142.81 74.0252 142.674 74.5415 142.493 74.9455C142.357 75.17 142.243 75.372 142.152 75.5516C142.016 75.6863 141.858 75.8434 141.676 76.023C141.495 76.1576 141.268 76.3148 140.996 76.4943C140.769 76.629 140.474 76.7412 140.111 76.831ZM139.294 95.6187C139.793 94.5862 140.406 92.9925 141.132 90.8376C141.858 88.6828 142.629 86.1912 143.446 83.363C141.222 83.6323 138.977 84.0139 136.708 84.5077C134.44 84.9567 132.375 85.5852 130.515 86.3932C128.7 87.1564 127.203 88.0992 126.023 89.2215C124.889 90.3438 124.322 91.6681 124.322 93.1945C124.322 94.8106 124.64 96.2248 125.275 97.4369C125.955 98.649 126.749 99.6591 127.657 100.467C128.61 101.275 129.562 101.881 130.515 102.285C131.513 102.734 132.353 102.959 133.033 102.959C133.714 102.959 134.349 102.689 134.939 102.151C135.574 101.657 136.141 101.028 136.64 100.265C137.184 99.5469 137.661 98.7612 138.069 97.9083C138.523 97.0553 138.931 96.2921 139.294 95.6187Z" fill="#70533F"/>
<path d="M161.908 51.7134C161.363 51.893 160.955 51.9155 160.683 51.7808C160.41 51.6461 160.206 51.4216 160.07 51.1074C159.934 50.7931 159.866 50.4564 159.866 50.0973C159.866 49.6933 159.889 49.3117 159.934 48.9525C159.979 48.6383 160.047 48.2791 160.138 47.8751C160.274 47.4711 160.433 47.0895 160.615 46.7303C160.796 46.3712 161 46.0794 161.227 45.8549C161.499 45.5856 161.84 45.406 162.248 45.3162C164.335 44.9571 166.354 44.6877 168.305 44.5081C170.301 44.3286 172.093 44.1939 173.681 44.1041C175.496 43.9694 177.243 43.9021 178.921 43.9021C179.284 43.9021 179.647 43.9245 180.01 43.9694C180.373 43.9694 180.736 43.9694 181.099 43.9694C181.507 43.8796 181.825 43.8572 182.052 43.9021C182.324 43.9021 182.551 43.9245 182.732 43.9694C184.048 44.0143 185.409 44.0816 186.816 44.1714C187.995 44.2612 189.311 44.3734 190.763 44.5081C192.26 44.5979 193.735 44.7326 195.187 44.9122C195.323 45.2713 195.345 45.7202 195.255 46.259C195.209 46.5283 195.164 46.7977 195.118 47.067C195.073 47.3364 194.96 47.5833 194.778 47.8078C194.642 48.0322 194.461 48.2567 194.234 48.4812C194.052 48.6607 193.825 48.8178 193.553 48.9525C192.011 48.9076 190.513 48.8852 189.062 48.8852C187.655 48.8403 186.407 48.8178 185.319 48.8178H181.644C181.054 50.8829 180.328 53.4418 179.466 56.4945C178.604 59.5024 177.719 62.6898 176.812 66.0567C175.95 69.3788 175.11 72.7009 174.294 76.023C173.522 79.3001 172.91 82.2631 172.456 84.9118C172.002 87.4707 171.549 89.9847 171.095 92.4538C170.914 93.4863 170.709 94.5637 170.483 95.6861C170.301 96.8084 170.12 97.9083 169.938 98.9857C169.802 100.063 169.666 101.096 169.53 102.083C169.394 103.071 169.28 103.969 169.189 104.777C168.464 105.136 167.783 105.405 167.148 105.585C166.513 105.809 165.945 105.967 165.446 106.056C164.857 106.191 164.312 106.258 163.813 106.258C162.724 106.258 162.044 106.124 161.771 105.854C161.545 105.63 161.522 105.158 161.703 104.44C161.839 103.812 162.248 102.106 162.928 99.3224C163.201 98.1552 163.541 96.6737 163.949 94.878C164.403 93.1272 164.925 90.9948 165.514 88.4807C166.104 85.9219 166.808 82.9589 167.624 79.5919C168.441 76.1801 169.371 72.2744 170.414 67.8749L174.974 49.1545C173.613 49.3341 172.275 49.5361 170.959 49.7606C169.643 49.9851 168.395 50.232 167.216 50.5013C166.082 50.7258 165.038 50.9503 164.085 51.1747C163.178 51.3992 162.452 51.5788 161.908 51.7134Z" fill="#70533F"/>
<path d="M68.5964 0.325195C69.5465 -0.0173901 72.4417 -0.0672681 76.8601 0.0732422C80.5978 0.228013 84.3272 0.594538 85.1257 0.839844C85.9226 1.12752 87.2958 1.9067 88.2048 2.58105C89.0714 3.25393 90.6125 5.14252 91.6082 6.83887C92.6056 8.49314 94.5172 11.7563 95.9158 14.0215C97.2718 16.2848 99.3209 19.299 100.458 20.6621C101.593 22.0675 102.654 23.2146 102.824 23.2217C103.036 23.2299 103.351 22.8189 103.626 22.3213C103.859 21.8216 104.782 21.0532 105.609 20.5781C106.781 19.99 107.852 19.8219 110.315 19.9238C112.565 20.0594 113.831 20.3243 114.618 20.8662C115.736 21.6338 115.822 21.5952 117.184 20.5059C117.976 19.8593 120.608 17.8879 123.018 16.1201C125.429 14.3522 129.452 11.6318 131.981 10.0811C134.511 8.53035 138.292 6.52247 140.455 5.63574C143.613 4.32332 144.945 3.99582 147.543 3.93359C149.415 3.92623 151.533 4.14206 152.626 4.48438C153.844 4.87439 155.045 5.68844 156.022 6.79004C157.04 7.93579 157.791 9.36783 158.196 10.9551C158.635 12.756 158.754 15.0962 158.583 19.376C158.495 22.6407 158.214 26.4918 157.54 30.5811L158.711 30.0352C159.405 29.7241 161.947 28.8954 164.442 28.1924C166.938 27.4892 171.059 26.5565 173.671 26.1553C177.695 25.5154 179.315 25.455 184.957 25.8584C190.684 26.2653 191.995 26.4901 195.095 27.6797C197.066 28.3979 199.699 29.5674 200.948 30.2559C202.197 30.9443 204.721 32.7468 206.534 34.2227C208.347 35.6985 210.85 38.0097 214.309 41.9307L211.558 41.5625C210.036 41.3297 207.629 40.8898 203.541 39.9141L203.652 43.5273C203.7 45.5237 203.582 47.386 203.358 47.6748C203.085 48.1304 202.172 47.5411 199.705 45.4014C197.895 43.8407 194.922 41.5949 193.1 40.3311C191.277 39.1095 188.201 37.3271 186.24 36.3545C184.279 35.3819 180.882 34.1371 178.694 33.5371C175.368 32.6778 173.758 32.4843 169.165 32.4639C164.868 32.4557 162.774 32.6662 159.767 33.3906C157.06 34.0848 155.72 34.6237 155.225 35.2822C154.865 35.7767 153.93 36.799 151.679 38.8281L140.94 38.2139C133.427 37.7754 129.358 37.3951 127.296 36.8428C125.654 36.3928 123.384 35.7043 122.253 35.2754C121.08 34.8023 119.077 33.8278 117.749 33.0088C116.046 32.0049 115.206 31.7155 115.02 32.0889C114.84 32.3361 114.186 32.7338 113.496 32.96C112.848 33.1878 110.843 33.3168 109.017 33.2412C107.191 33.1656 105.291 32.832 104.708 32.5107C103.751 31.9618 103.448 32.0773 100.831 33.709C99.2611 34.6627 96.1773 36.2328 93.9705 37.1602C91.8079 38.0469 88.4016 39.1798 86.4275 39.6074C83.6804 40.2153 81.718 40.3458 77.3875 40.124C73.4798 39.9622 71.0671 39.65 69.1335 39.0605C67.6213 38.5734 64.8163 37.4386 62.8523 36.5508C60.8899 35.6206 57.8752 34.3922 56.1541 33.8115C54.4329 33.2309 51.1952 32.2906 49.0037 31.7754C46.334 31.1555 43.1582 30.7686 39.4773 30.6162C38.4613 30.582 37.5114 30.5686 36.6277 30.5723C34.6113 30.816 32.6373 31.723 30.7068 33.2979C28.4229 35.1009 26.2591 37.5354 24.2156 40.6006C22.2321 43.6058 20.3687 47.062 18.6257 50.9688C16.9429 54.8754 15.4709 58.9027 14.2087 63.0498C12.9466 67.197 11.9247 71.2846 11.1433 75.3115C10.362 79.3384 9.88125 83.0049 9.70093 86.3105C9.46052 90.4576 9.61021 93.8237 10.1511 96.4082C10.692 98.9925 11.4137 101.006 12.3152 102.448C13.2768 103.951 14.2988 104.943 15.3806 105.424C16.4623 105.965 17.4538 106.235 18.3552 106.235C20.0382 106.235 21.9322 105.453 24.0359 103.891C26.1393 102.328 28.1528 100.195 30.0759 97.4902C31.9992 94.8457 33.712 91.7799 35.2146 88.2939C36.7773 84.808 37.8894 81.1415 38.5505 77.2949C37.048 77.2949 35.5155 77.3247 33.9529 77.3848C32.4503 77.3848 31.0072 77.4145 29.6248 77.4746C28.2425 77.5347 27.0102 77.6249 25.9285 77.7451C24.8467 77.8052 24.0051 77.8954 23.4041 78.0156C22.9836 77.8354 22.6829 77.6251 22.5027 77.3848C22.3825 77.1444 22.2625 76.8736 22.1423 76.5732C22.0222 76.3329 21.9617 76.0324 21.9617 75.6719C21.9617 75.3115 22.0222 74.981 22.1423 74.6807C22.2625 74.3802 22.4122 74.0788 22.5925 73.7783C22.7728 73.4178 23.0138 73.0568 23.3142 72.6963C25.2375 72.3357 27.1307 72.0353 28.9939 71.7949C30.8571 71.5545 32.781 71.3741 34.7644 71.2539C36.8079 71.0736 38.9718 70.9537 41.2556 70.8936C43.5996 70.7734 46.2144 70.6832 49.0994 70.623C50.3011 70.563 51.022 70.7137 51.2625 71.0742C51.563 71.4348 51.4727 72.336 50.9919 73.7783C50.6313 74.9203 50.1506 75.852 49.5496 76.5732C49.0086 77.2945 48.0769 77.5948 46.7546 77.4746C46.3342 77.4746 46.0038 77.4448 45.7634 77.3848C45.2225 80.9308 44.0806 84.6876 42.3376 88.6543C40.5947 92.621 38.4605 96.2876 35.9363 99.6533C33.4119 103.019 30.6168 105.814 27.5515 108.038C24.5463 110.262 21.4807 111.374 18.3552 111.374C15.4102 111.374 12.7656 110.593 10.4216 109.03C8.07768 107.528 6.0942 105.454 4.47144 102.81C2.84867 100.165 1.64634 97.0993 0.86499 93.6133C0.143762 90.1273 -0.126844 86.4302 0.0534668 82.5234C0.29391 78.3764 0.925304 74.1091 1.94702 69.7217C2.96878 65.274 4.3515 60.9465 6.09448 56.7393C7.83749 52.532 9.85059 48.5346 12.1345 44.748C14.4785 40.9617 17.033 37.6559 19.7976 34.8311C22.3315 32.2972 25.0115 30.2474 27.8357 28.6807C27.8482 28.667 27.8612 28.6534 27.8738 28.6396C28.1077 28.5156 28.3488 28.3936 28.5964 28.2725C28.6691 28.2347 28.7414 28.1963 28.8142 28.1592C31.6796 26.6455 34.6666 25.8142 37.7751 25.6621C42.8471 25.0788 49.2419 25.5467 57.1687 28.1006L57.198 28.0596C57.6321 28.3425 58.0608 28.6237 58.4783 28.8994C62.8312 31.7538 66.6173 33.9055 68.8787 34.8057C72.1048 36.0428 72.9494 36.2056 77.7488 36.4043C82.6332 36.6065 83.3607 36.5092 87.1492 35.3926C89.3883 34.7212 92.5871 33.4522 94.2791 32.6309C95.9285 31.8078 97.7125 30.8211 98.1951 30.459C98.808 30.0176 98.3796 30.0844 96.698 30.6514C95.4035 31.1071 92.7757 31.932 90.8816 32.4902C88.9874 33.0485 85.594 33.8417 83.365 34.2588C80.9203 34.7518 77.7618 35.0038 75.4666 34.9512C72.1096 34.8546 71.4346 34.6989 69.8562 33.7422C68.8606 33.1066 67.6325 31.9098 67.0701 31.0801C66.5501 30.2519 65.7729 28.3945 65.4041 26.9785C64.9927 25.5606 64.5135 22.6543 64.3416 20.5674C64.0983 18.1377 64.1542 14.6163 64.4255 11.0195C64.7207 7.8907 65.1903 4.64128 65.4773 3.84668C65.8068 3.05385 66.2744 2.01198 66.5886 1.60059C66.8625 1.14507 67.7779 0.588331 68.5964 0.325195ZM124.43 31.8848C121.676 31.6434 119.721 31.6052 119.796 31.8203C119.873 32.0359 121.335 32.6909 123.013 33.2695C124.735 33.8502 127.343 34.5945 128.862 34.9121C130.383 35.1873 132.922 35.5046 134.579 35.5732L137.554 35.6543C135.601 34.5122 133.716 33.7543 132.119 33.2637C130.481 32.7289 127.059 32.1209 124.43 31.8848ZM144.445 14.376C143.001 14.3162 140.565 14.5966 139.019 14.957C137.472 15.3598 134.838 16.3121 133.19 17.0928C131.5 17.8717 127.886 19.9298 125.135 21.6836C122.387 23.3948 119.507 25.2279 118.804 25.751L117.49 26.7158C123.166 27.3329 127.001 28.2555 130.151 29.2773C133.135 30.2074 137.003 31.3444 138.646 31.752C140.332 32.1613 142.615 32.5099 143.719 32.5557C144.866 32.6031 146.316 32.4938 147.049 32.2695C147.736 32.0858 148.658 31.4024 149.021 30.8232C149.521 30.0373 149.704 28.6432 149.764 26.0566C149.801 24.0631 149.667 21.0438 149.519 19.4248C149.273 17.0801 148.966 16.2179 148.147 15.4199C147.328 14.6223 146.655 14.425 144.445 14.376ZM77.7361 4.7793C77.3964 4.76523 76.8796 4.91337 76.6179 5.07227C76.3564 5.23119 75.7701 6.05579 75.3523 6.92969C74.8903 7.8444 74.2993 10.9195 73.8513 14.6787C73.2778 19.4513 73.1886 21.6976 73.4744 24.1289C73.7584 26.6026 74.0595 27.5913 74.8767 28.4316C75.694 29.2719 76.4463 29.6004 78.3523 29.8066C79.6656 29.9459 82.0939 29.8771 83.7605 29.6914C85.3848 29.5039 89.5808 28.8283 93.0515 28.208L99.3923 27.1123C94.1016 24.304 92.4533 22.9622 89.8435 20.1377C87.4766 17.6202 85.2958 14.6855 83.2634 11.248C81.5879 8.46202 79.8206 5.84138 79.282 5.47949C78.7861 5.11957 78.076 4.79365 77.7361 4.7793Z" fill="url(#paint0_linear_244_1712)"/>
<defs>
<linearGradient id="paint0_linear_244_1712" x1="214.31" y1="55.687" x2="-0.000244141" y2="55.687" gradientUnits="userSpaceOnUse">
<stop offset="0.375554" stop-color="#70533F"/>
<stop offset="0.73791" stop-color="#F6C1D2"/>
</linearGradient>
</defs>
</svg>
